<svg xmlns="http://www.w3.org/2000/svg" xmlns:xlink="http://www.w3.org/1999/xlink" width="1200" height="1200" viewBox="0 0 1200 1200"><g><g transform="translate(600 600) scale(0.69 0.69) rotate(0) translate(-600 -600)" style="fill:#cfcfcf"><svg fill="#cfcfcf" xmlns="http://www.w3.org/2000/svg" xmlns:xlink="http://www.w3.org/1999/xlink" version="1.1" x="0px" y="0px" viewBox="0 0 100 100" enable-background="new 0 0 100 100" xml:space="preserve"><g transform="translate(0.000000,1125.000000) scale(0.100000,-0.100000)"><path d="M267.7,11199.2c-2.9-0.6-99.2-22.1-99.6-22.5c-1.5-1.5-0.6-11.5,1.4-15.5c3.9-8.2,14.3-15.3,27.3-19   c8.1-2.3,24.1-4.4,33-4.4c3.7,0,7.1-0.3,7.3-0.7c0.3-0.4,33.9-177.2,36.8-183.2c5.6-11.3,8.8-13.8,45.2-33.7   c17.5-9.6,31.8-17.7,31.6-18.1c-0.1-0.3-93.3-66.2-93.3-66.2l-167.1,45.7l-9-0.3c-8.5-0.3-9.5-0.5-16-3.7   c-12.3-6.1-21.3-17.9-23.1-30.4c-3.2-21.3-14.7-102.6-14.7-103.8c0-2.4,6.5-4.9,13.5-4.9c4.7,0,7.1,0.5,10.7,2.2   c5.8,2.7,14.5,10.9,20.1,19.1c4.2,6.1,12.9,22.9,16,30.9c1.1,3,1.8,3.7,3.1,3.3c0.9-0.2,165.5-45.4,165.5-45.4h9.6   c7.8,0.1,10.5,0.4,14.6,2.1c3.2,1.2,112.1,77.2,112.7,77.3c0.7,0.3,2.5-2.8,5-8.5c2.2-5,19.4-44.3,19.4-44.3s177.5,0.3,177,1.1   c-7,12-83.1,129-86.4,132.8c-2.5,3-6.5,6.5-8.7,8c-2.4,1.5-149.3,82.6-149.6,82.9c-0.3,0.3-32.9,170.4-35.5,176   c-2.9,6.1-9.6,13.7-15.6,17.5C290.1,11199,277.3,11201.4,267.7,11199.2z"></path><path d="M382.7,10759.1c-2.1-1.6,22.2-426,22.8-429.8c1.3-9.2,10.5-20.8,20-25.4c4.4-2.1,6.8-2.6,14.8-3.1   c5.3-0.3,73.2-0.7,150.9-0.7c117-0.1,142,0.2,145.7,1.1c13.5,3.6,24.5,14.7,27.3,27.6c0.4,2.1,1,8.2,1.3,13.4   c0.3,5.3,22.1,400.1,22.8,408.6c0.4,5.5,0.3,6.9-1,8C786,10760.2,384.2,10760.1,382.7,10759.1z M513.7,10701.5l2.4-2.1l0.3-157.6   l0.2-157.5l-3.1-3.1c-2.8-2.8-3.5-3.1-6.4-2.6c-1.9,0.3-4,1.5-5.1,2.8l-2,2.3v157.4v157.5l2.5,2.5   C505.9,10704.3,510.2,10704.5,513.7,10701.5z M595.2,10701.1l2.5-2.5v-157.4v-157.3l-2.1-2.3c-2.7-2.9-5.9-3.7-9.3-2.4   c-5.5,2.4-5.1-9.2-5.1,162.6v156.7l2.5,2.5c1.9,1.8,3.4,2.5,5.8,2.5C591.8,10703.6,593.2,10702.9,595.2,10701.1z M671,10701.1   l2.5-2.5v-157.4v-157.3l-2.1-2.3c-1.1-1.2-3.1-2.5-4.4-2.9c-3.1-0.8-8.1,1.7-9.2,4.5c-0.5,1.4-0.9,58.9-0.9,158.7v156.6l2.5,2.5   c1.9,1.8,3.4,2.5,5.8,2.5C667.6,10703.6,669.1,10702.9,671,10701.1z"></path><path d="M792.7,10692.5c-2.6-2.9-3.1-5.5-1.7-11.5c2.9-12.8,88.1-380.6,94.5-380.6c2.9,0,4,0.5,5.7,2.4c1.1,1.4,2.1,3.4,2.1,4.5   c0,1.7-12.4,57-18.3,81.8c-1,3.9-1.7,7.6-1.7,8.1c0,0.5,2.3,1.4,5.1,2c16.1,3.5,27.8,15.8,29.4,30.8c0.7,6.5-34.8,159.7-42.3,166.7   c-8.4,7.8-18.9,11.2-29.9,9.3c-3.5-0.6-7.1-1.2-8.2-1.5c-2.3-0.6-23.2,87.7-24.8,88.7C800.3,10694.6,794.2,10694.1,792.7,10692.5z"></path></g></svg></g></g></svg>